<?xml version="1.0" encoding="UTF-8" standalone="no"?>
<svg width="25px" height="32px" viewBox="0 0 25 32" version="1.1" xmlns="http://www.w3.org/2000/svg" xmlns:xlink="http://www.w3.org/1999/xlink">
    <defs></defs>
    <g stroke="none" stroke-width="1" fill="none" fill-rule="evenodd">
        <path d="M24.8103088,14.8453142 L23.6656014,11.4143032 L20.8854657,8.96369972 L20.8854657,6.83977569 L20.2313868,4.71585166 L18.2088147,3.73562874 L15.6523723,3.73562874 L13.7717222,4.96093047 L13.1175509,6.67638982 L12.7087862,9.12699328 L10.419279,11.0058385 L8.45685741,10.9242379 L6.79777547,9.89813768 L6.79777547,0 L6.15099591,0 C4.0258631,1.24616343 4.16445872,3.73562874 0.745766801,5.35388734 C-0.824983539,8.83086793 0.54147686,12.8616066 0.745766801,12.8616066 C1.48494343,8.83086793 4.75986549,8.65520504 6.15099591,8.49237302 L6.15099591,10.3523873 L5.75849312,10.6791591 L5.75849312,12.6396972 L6.15099591,12.6396972 L6.15099591,32 L6.79777547,32 L6.79777547,12.6396972 L6.82152152,12.6396972 L10.419279,14.1917707 L12.7087862,13.783306 L13.7717222,18.4396188 L13.2810937,25.0563774 L13.2810937,29.5493042 L12.3817005,31.1013777 L12.6496521,31.692613 L12.9883797,32 L15.0827443,32 L15.6523723,30.2845407 L15.979458,26.363372 L16.8788512,22.1540166 L17.2877082,22.1540166 L18.0085902,26.4002031 L18.2688728,30.4478342 L19.0195067,32 L20.9672371,32 L21.4578656,31.6731359 L21.539637,30.5295272 L20.7219229,29.2225325 L20.7219229,24.6479127 L20.4109143,19.630951 L20.3948372,18.2762329 L21.0490085,15.2103939 L21.1307799,13.864999 L21.5235599,14.1462627 L21.9201282,15.076916 L22.7824701,16.3385872 L23.0113377,17.7043823 L23.4553056,19.0155309 L23.8450365,19.1078393 L23.7818369,18.2497404 L24.2718186,18.4803268 L24.4014517,19.8283064 L25,19.9076916 L25,17.3230563 L24.8103088,14.8453142 Z M17.0692815,8.83086793 C15.6999568,8.83086793 14.5899907,7.96298433 14.5899907,6.89239148 C14.5899907,5.82179863 15.6999568,4.95391503 17.0692815,4.95391503 C18.4386062,4.95391503 19.5486647,5.82179863 19.5486647,6.89239148 C19.5486647,7.96298433 18.4386062,8.83086793 17.0692815,8.83086793 Z M19.0195067,14.2154017 L15.1751414,14.2154017 L15.1751414,11.538458 L19.0195067,11.538458 L19.0195067,14.2154017 Z" fill="#C43C3C"></path>
    </g>
</svg>