<?xml version="1.0" encoding="UTF-8" standalone="no"?>
<svg width="28px" height="21px" viewBox="0 0 28 21" version="1.1" xmlns="http://www.w3.org/2000/svg" xmlns:xlink="http://www.w3.org/1999/xlink">
    <defs></defs>
    <g stroke="none" stroke-width="1" fill="none" fill-rule="evenodd">
        <path d="M14.0616628,17.0288755 C13.0182349,17.0288755 12.1723727,17.9178401 12.1723727,19.0144377 C12.1723727,20.1110354 13.0182349,21 14.0616628,21 C15.1050908,21 15.950953,20.1110354 15.950953,19.0144377 C15.950953,17.9178401 15.1050908,17.0288755 14.0616628,17.0288755 Z M8.97240994,13.6600003 L11.4868752,15.6189939 C12.9595319,14.0625967 15.2199327,14.0556 16.7008662,15.603393 L19.1509157,13.6302169 C16.3300256,10.6821297 11.777556,10.6954613 8.97240994,13.6600003 Z M4.53037387,10.0951502 L7.20686828,12.2713264 C12.1723727,7.85742152 16.6181423,8.23269279 20.8102973,12.2713264 L23.5201691,10.0951502 C17.1504723,4.61140541 11.1587235,4.07766736 4.53037387,10.0951502 Z M0,6.4977463 L2.78976185,8.71297193 C10.1031141,1.5225891 18.1101058,1.99534203 25.2413665,8.71297193 L28,6.4977463 C19.5495649,-1.97578251 8.97241893,-2.35398485 0,6.4977463 Z" fill="#C43C3C"></path>
    </g>
</svg>