<?xml version="1.0" encoding="UTF-8" standalone="no"?>
<svg width="142px" height="26px" viewBox="0 0 142 26" version="1.1" xmlns="http://www.w3.org/2000/svg" xmlns:xlink="http://www.w3.org/1999/xlink">
    <defs></defs>
    <g stroke="none" stroke-width="1" fill="none" fill-rule="evenodd">
        <g fill="#F0F1F1">
            <path d="M10.0078,4.2246 C10.3438,4.4806 10.5138,4.7706 10.5438,5.1396 L11.8728,21.4136 C11.9038,21.7936 11.7838,22.1136 11.4938,22.4186 C11.1838,22.7466 10.8058,22.9256 10.3378,22.9636 L4.1848,23.4666 L2.6258,4.3776 L8.7788,3.8756 C9.2488,3.8396 9.6498,3.9516 10.0078,4.2246 M11.5138,2.3456 C10.6448,1.7076 9.6628,1.4286 8.5868,1.5166 C7.2838,1.6226 5.9868,1.7316 4.6968,1.8426 C3.4108,1.9536 2.1308,2.0546 0.8548,2.1476 L-0.0002,2.2106 L1.9428,25.9996 L2.7828,25.9386 C4.0648,25.8456 5.3518,25.7456 6.6438,25.6406 L10.5308,25.3226 C11.6048,25.2346 12.5318,24.7996 13.3018,24.0126 C14.0528,23.2036 14.3908,22.2616 14.3058,21.2146 L12.9768,4.9406 C12.8938,3.9196 12.4098,3.0536 11.5138,2.3456"></path>
            <path d="M22.1543,23.2783 C21.8603,23.3093 21.6263,23.2403 21.4153,23.0783 C21.2293,22.9373 21.1433,22.7913 21.1273,22.5913 L20.7403,17.8553 L25.4013,17.4743 L25.2253,15.3213 L20.5643,15.7023 L20.1783,10.9823 C20.1673,10.8403 20.1833,10.6663 20.3843,10.4523 C20.5653,10.2603 20.7863,10.1603 21.0813,10.1363 L27.4513,9.6163 L27.2733,7.4473 L20.9033,7.9673 C20.0453,8.0383 19.3213,8.3803 18.7523,8.9833 C18.1663,9.6033 17.8913,10.3573 17.9573,11.1633 L18.9053,22.7713 C18.9703,23.5773 19.3643,24.2773 20.0433,24.7943 C20.6233,25.2363 21.2893,25.4603 22.0273,25.4603 C22.1273,25.4603 22.2283,25.4563 22.3313,25.4483 L28.7003,24.9273 L28.5243,22.7573 L22.1543,23.2783 Z"></path>
            <path d="M35.9409,23.1162 C35.6459,23.1462 35.4119,23.0772 35.2029,22.9192 C34.9689,22.7402 34.9249,22.5712 34.9139,22.4292 L34.5269,17.6932 L39.1879,17.3132 L39.0119,15.1602 L34.3509,15.5412 L33.9649,10.8212 C33.9489,10.6192 34.0109,10.4612 34.1709,10.2912 C34.3519,10.0992 34.5729,9.9992 34.8669,9.9752 L41.2379,9.4552 L41.0599,7.2862 L34.6899,7.8062 C33.8319,7.8772 33.1079,8.2192 32.5389,8.8222 C31.9529,9.4422 31.6779,10.1962 31.7439,11.0022 L32.6919,22.6112 C32.7569,23.4172 33.1509,24.1162 33.8299,24.6332 C34.4099,25.0752 35.0739,25.2992 35.8099,25.2992 C35.9109,25.2992 36.0139,25.2942 36.1179,25.2862 L42.4869,24.7652 L42.3109,22.5962 L35.9409,23.1162 Z"></path>
            <path d="M47.9102,14.335 L47.5452,9.861 L50.8832,9.588 C51.4592,9.539 51.9492,9.679 52.3842,10.011 C52.7962,10.325 53.0062,10.689 53.0442,11.154 L53.1272,12.166 C53.1652,12.638 53.0192,13.029 52.6612,13.401 C52.2852,13.799 51.8232,14.015 51.2482,14.062 L47.9102,14.335 Z M53.7722,8.279 C52.8862,7.604 51.8562,7.31 50.7042,7.403 L45.1272,7.86 L46.5602,25.402 L48.7992,25.218 L48.0902,16.535 L51.4282,16.263 C52.5772,16.169 53.5482,15.711 54.3132,14.901 C55.1022,14.065 55.4562,13.084 55.3672,11.983 L55.2842,10.971 C55.1952,9.882 54.6862,8.976 53.7722,8.279 L53.7722,8.279 Z"></path>
            <path d="M83.189,12.252 C82.293,11.594 81.271,11.307 80.153,11.399 L75.835,11.755 C75.452,11.752 75.11,11.631 74.79,11.387 C74.442,11.123 74.265,10.808 74.232,10.396 L73.794,5.05 C73.761,4.643 73.883,4.31 74.187,3.996 C74.518,3.645 74.924,3.454 75.428,3.413 L82.327,2.849 L82.129,0.459 L75.233,1.023 C74.095,1.115 73.13,1.573 72.367,2.383 C71.588,3.206 71.238,4.171 71.326,5.253 L71.763,10.597 C71.851,11.687 72.354,12.587 73.261,13.278 C74.145,13.939 75.17,14.226 76.303,14.137 L80.683,13.778 C81.055,13.814 81.38,13.938 81.666,14.148 C82.028,14.424 82.21,14.738 82.243,15.144 L82.679,20.483 C82.712,20.893 82.59,21.215 82.271,21.54 C81.938,21.892 81.532,22.082 81.028,22.122 L74.113,22.688 L74.31,25.078 L81.224,24.515 L81.224,24.514 C82.362,24.421 83.327,23.963 84.09,23.152 C84.879,22.316 85.235,21.351 85.147,20.278 L84.711,14.939 C84.624,13.858 84.116,12.957 83.189,12.252"></path>
            <path d="M91.2583,13.8291 L90.8933,9.3541 L94.2323,9.0811 C94.8083,9.0371 95.2973,9.1731 95.7333,9.5051 C96.1453,9.8181 96.3553,10.1821 96.3933,10.6481 L96.4753,11.6601 C96.5143,12.1321 96.3673,12.5221 96.0093,12.8941 C95.6333,13.2921 95.1713,13.5091 94.5973,13.5561 L91.2583,13.8291 Z M97.1203,7.7721 C96.2343,7.0971 95.1983,6.8071 94.0533,6.8971 L88.4763,7.3541 L89.9073,24.8961 L92.1473,24.7121 L91.4383,16.0291 L94.7763,15.7571 C95.9243,15.6631 96.8953,15.2051 97.6613,14.3941 C98.4493,13.5591 98.8043,12.5781 98.7153,11.4771 L98.6323,10.4641 C98.5433,9.3751 98.0343,8.4701 97.1203,7.7721 L97.1203,7.7721 Z"></path>
            <path d="M106.9126,18.0742 L107.7016,12.5992 L109.3786,17.8822 L106.9126,18.0742 Z M107.6096,6.6942 L107.0766,5.0132 L106.8256,6.7582 L106.2626,6.8032 L103.6526,24.7402 L105.9906,24.5492 L106.6006,20.3112 L110.0516,20.0302 L111.3406,24.1112 L113.6576,23.9252 L108.2116,6.6442 L107.6096,6.6942 Z"></path>
            <path d="M120.7192,22.1309 C120.4292,22.1629 120.1922,22.0889 119.9902,21.9409 C119.8102,21.7989 119.7262,21.6499 119.7092,21.4429 L118.7662,9.8969 C118.7482,9.6899 118.8082,9.5289 118.9432,9.3799 C119.1382,9.1799 119.3632,9.0759 119.6502,9.0529 L126.0032,8.5339 L125.8252,6.3809 L119.4742,6.8999 C118.6062,6.9709 117.8812,7.3069 117.3132,7.9089 C116.7452,8.5269 116.4792,9.2769 116.5432,10.0779 L117.4872,21.6229 C117.5522,22.4249 117.9362,23.1229 118.6092,23.6489 C119.1772,24.0799 119.8372,24.2979 120.5742,24.2979 C120.6802,24.2979 120.7862,24.2939 120.8952,24.2849 L127.2452,23.7659 L127.0712,21.6109 L120.7192,22.1309 Z"></path>
            <path d="M140.979,21.4443 L134.612,21.9643 C134.313,21.9923 134.081,21.9243 133.873,21.7663 C133.686,21.6253 133.6,21.4773 133.583,21.2773 L133.196,16.5413 L137.857,16.1603 L137.682,14.0073 L133.021,14.3883 L132.636,9.6683 C132.625,9.5263 132.639,9.3523 132.842,9.1383 C133.022,8.9463 133.243,8.8463 133.537,8.8223 L139.908,8.3023 L139.729,6.1333 L133.361,6.6543 C132.501,6.7233 131.777,7.0663 131.209,7.6693 C130.623,8.2893 130.348,9.0433 130.414,9.8493 L131.361,21.4583 C131.426,22.2643 131.821,22.9643 132.499,23.4783 C133.079,23.9223 133.744,24.1463 134.479,24.1463 C134.581,24.1463 134.683,24.1413 134.788,24.1333 L141.158,23.6133 L140.979,21.4443 Z"></path>
        </g>
    </g>
</svg>