<?xml version="1.0" encoding="UTF-8" standalone="no"?>
<svg width="24px" height="30px" viewBox="0 0 24 30" version="1.1" xmlns="http://www.w3.org/2000/svg" xmlns:xlink="http://www.w3.org/1999/xlink">
    <defs></defs>
    <g stroke="none" stroke-width="1" fill="none" fill-rule="evenodd">
        <path d="M21.2033244,13.2451681 C19.8973107,7.33501454 16.5750538,-2 15.4706591,-2 C14.3661053,-2 11.0433708,7.33678004 9.73762241,13.2468266 C8.91188643,13.3895648 5,24.0982473 5,26.2414069 L9.20237698,22.0040403 L12.6122851,22.0040403 L14.5007125,23.6306032 L16.3952415,23.6306032 L18.3369387,22.0040403 L21.7389413,22.0040403 L26,26.300578 C26,24.1331829 21.9997196,13.2453821 21.2033244,13.2451681 Z M13.3449782,23.989503 L14.4231736,26.9947781 L15.5013691,30 L16.5781955,26.9942462 L17.6550218,23.9884393 L15.5,23.9890243 L13.3449782,23.989503 Z" fill="#C43C3C" transform="translate(15.500000, 14.000000) rotate(-330.000000) translate(-15.500000, -14.000000) "></path>
    </g>
</svg>